<svg width="500" height="402" viewBox="0 0 500 402" fill="none" xmlns="http://www.w3.org/2000/svg">
<g clip-path="url(#clip0_107_146)">
<path d="M21.726 207.858C21.726 207.858 15.457 251.415 41.513 300.016C64.211 342.354 105.294 371.869 154.117 384.371C186.344 392.623 219.553 392.235 252.243 390.196C294.298 387.573 341.05 390.03 379.874 374.184C440.313 349.516 477.241 284.931 480.044 224.981C481.855 186.248 466.96 141.766 427.351 121.354C412.686 113.796 396.399 108.18 383.554 97.847C368.164 85.466 361.447 67.495 349.957 52.499C335.762 33.973 315.428 23.418 293.361 14.882C221.64 -12.86 153.202 -0.410038 97.323 36.241C41.443 72.892 18.386 186.505 21.726 207.858Z" fill="#1598E1"/>
<path opacity="0.9" d="M21.726 207.858C21.726 207.858 15.457 251.415 41.513 300.016C64.211 342.354 105.294 371.869 154.117 384.371C186.344 392.623 219.553 392.235 252.243 390.196C294.298 387.573 341.05 390.03 379.874 374.184C440.313 349.516 477.241 284.931 480.044 224.981C481.855 186.248 466.96 141.766 427.351 121.354C412.686 113.796 396.399 108.18 383.554 97.847C368.164 85.466 361.447 67.495 349.957 52.499C335.762 33.973 315.428 23.418 293.361 14.882C221.64 -12.86 153.202 -0.410038 97.323 36.241C41.443 72.892 18.386 186.505 21.726 207.858Z" fill="white"/>
<path d="M233.636 86.2961H80.338V262.021H233.636V86.2961Z" fill="#BDBDBD"/>
<path d="M226.721 95.593H87.253V262.022H226.721V95.593Z" fill="#DBDBDB"/>
<path d="M226.721 124.159H87.253V133.456H226.721V124.159Z" fill="#BDBDBD"/>
<path d="M201.194 1.7981H191.156V4.9351H201.194V1.7981Z" fill="#BDBDBD"/>
<path d="M201.194 6.19019H191.156V9.32719H201.194V6.19019Z" fill="#BDBDBD"/>
<path d="M201.194 10.582H191.156V13.719H201.194V10.582Z" fill="#BDBDBD"/>
<path d="M201.194 14.9731H191.156V18.1101H201.194V14.9731Z" fill="#BDBDBD"/>
<path d="M201.194 19.365H191.156V22.502H201.194V19.365Z" fill="#BDBDBD"/>
<path d="M201.194 23.7571H191.156V26.8941H201.194V23.7571Z" fill="#BDBDBD"/>
<path d="M201.194 28.1482H191.156V31.2852H201.194V28.1482Z" fill="#BDBDBD"/>
<path d="M201.194 32.54H191.156V35.677H201.194V32.54Z" fill="#BDBDBD"/>
<path d="M201.194 36.9321H191.156V40.0691H201.194V36.9321Z" fill="#BDBDBD"/>
<path d="M201.194 41.324H191.156V44.461H201.194V41.324Z" fill="#BDBDBD"/>
<path d="M201.194 45.7151H191.156V48.8521H201.194V45.7151Z" fill="#BDBDBD"/>
<path d="M201.194 50.1072H191.156V53.2442H201.194V50.1072Z" fill="#BDBDBD"/>
<path d="M201.194 54.499H191.156V57.636H201.194V54.499Z" fill="#BDBDBD"/>
<path d="M201.194 58.8911H191.156V62.0281H201.194V58.8911Z" fill="#BDBDBD"/>
<path d="M201.194 63.282H191.156V66.419H201.194V63.282Z" fill="#BDBDBD"/>
<path d="M201.194 67.6741H191.156V70.8111H201.194V67.6741Z" fill="#BDBDBD"/>
<path d="M201.194 72.0662H191.156V75.2032H201.194V72.0662Z" fill="#BDBDBD"/>
<path d="M201.194 76.458H191.156V79.595H201.194V76.458Z" fill="#BDBDBD"/>
<path d="M201.194 80.8491H191.156V83.9861H201.194V80.8491Z" fill="#BDBDBD"/>
<path d="M201.194 85.2412H191.156V88.3782H201.194V85.2412Z" fill="#BDBDBD"/>
<path d="M332.42 86.2961H254.093V262.021H332.42V86.2961Z" fill="#BDBDBD"/>
<path d="M326.312 95.593H260.202V262.022H326.312V95.593Z" fill="#DBDBDB"/>
<path d="M326.312 124.159H260.202V133.456H326.312V124.159Z" fill="#BDBDBD"/>
<path d="M299.979 1.7981H289.941V4.9351H299.979V1.7981Z" fill="#BDBDBD"/>
<path d="M299.979 6.19019H289.941V9.32719H299.979V6.19019Z" fill="#BDBDBD"/>
<path d="M299.979 10.582H289.941V13.719H299.979V10.582Z" fill="#BDBDBD"/>
<path d="M299.979 14.9731H289.941V18.1101H299.979V14.9731Z" fill="#BDBDBD"/>
<path d="M299.979 19.365H289.941V22.502H299.979V19.365Z" fill="#BDBDBD"/>
<path d="M299.979 23.7571H289.941V26.8941H299.979V23.7571Z" fill="#BDBDBD"/>
<path d="M299.979 28.1482H289.941V31.2852H299.979V28.1482Z" fill="#BDBDBD"/>
<path d="M299.979 32.54H289.941V35.677H299.979V32.54Z" fill="#BDBDBD"/>
<path d="M299.979 36.9321H289.941V40.0691H299.979V36.9321Z" fill="#BDBDBD"/>
<path d="M299.979 41.324H289.941V44.461H299.979V41.324Z" fill="#BDBDBD"/>
<path d="M299.979 45.7151H289.941V48.8521H299.979V45.7151Z" fill="#BDBDBD"/>
<path d="M299.979 50.1072H289.941V53.2442H299.979V50.1072Z" fill="#BDBDBD"/>
<path d="M299.979 54.499H289.941V57.636H299.979V54.499Z" fill="#BDBDBD"/>
<path d="M299.979 58.8911H289.941V62.0281H299.979V58.8911Z" fill="#BDBDBD"/>
<path d="M299.979 63.282H289.941V66.419H299.979V63.282Z" fill="#BDBDBD"/>
<path d="M299.979 67.6741H289.941V70.8111H299.979V67.6741Z" fill="#BDBDBD"/>
<path d="M299.979 72.0662H289.941V75.2032H299.979V72.0662Z" fill="#BDBDBD"/>
<path d="M299.979 76.458H289.941V79.595H299.979V76.458Z" fill="#BDBDBD"/>
<path d="M299.979 80.8491H289.941V83.9861H299.979V80.8491Z" fill="#BDBDBD"/>
<path d="M299.979 85.2412H289.941V88.3782H299.979V85.2412Z" fill="#BDBDBD"/>
<path d="M267.606 237.799H47V276.44H267.606V237.799Z" fill="#BDBDBD"/>
<path d="M63.845 246.21C63.845 248.792 61.752 250.885 59.17 250.885C56.588 250.885 54.495 248.792 54.495 246.21C54.495 243.628 56.588 241.535 59.17 241.535C61.752 241.534 63.845 243.627 63.845 246.21Z" fill="#1598E1"/>
<path d="M84.884 241.534H72.611V250.885H84.884V241.534Z" fill="#1598E1"/>
<path d="M100.079 241.534H87.806V250.885H100.079V241.534Z" fill="#808080"/>
<path d="M267.606 149H47V237.913H267.606V149Z" fill="#DBDBDB"/>
<path d="M267.606 276.498H47V395.608H267.606V276.498Z" fill="#DBDBDB"/>
<path d="M213.083 152.355H101.522V234.558H213.083V152.355Z" fill="#BDBDBD"/>
<path d="M105.462 221.096C105.2 221.982 105.054 222.917 105.054 223.888C105.054 229.325 109.462 233.733 114.899 233.733C120.336 233.733 124.743 229.325 124.743 223.888C124.743 222.917 124.597 221.982 124.335 221.096H105.462Z" fill="#1598E1"/>
<path d="M118.719 213.562V200.525H111.078V213.562C106.878 215.117 103.878 219.147 103.878 223.888C103.878 229.974 108.812 234.908 114.898 234.908C120.984 234.908 125.918 229.974 125.918 223.888C125.918 219.147 122.919 215.117 118.719 213.562Z" stroke="white" stroke-miterlimit="10"/>
<path d="M150.031 221.096C149.769 221.982 149.623 222.917 149.623 223.888C149.623 229.325 154.031 233.733 159.468 233.733C164.905 233.733 169.312 229.325 169.312 223.888C169.312 222.917 169.166 221.982 168.904 221.096H150.031Z" fill="#1598E1"/>
<path d="M163.289 213.562V200.525H155.648V213.562C151.448 215.117 148.448 219.147 148.448 223.888C148.448 229.974 153.382 234.908 159.468 234.908C165.554 234.908 170.488 229.974 170.488 223.888C170.488 219.147 167.489 215.117 163.289 213.562Z" stroke="white" stroke-miterlimit="10"/>
<path d="M129.246 224.677C129.052 225.333 128.944 226.026 128.944 226.745C128.944 230.772 132.209 234.037 136.236 234.037C140.263 234.037 143.528 230.772 143.528 226.745C143.528 226.026 143.42 225.333 143.226 224.677H129.246Z" fill="#1598E1"/>
<path d="M139.066 219.096V209.439H133.406V219.096C130.295 220.248 128.073 223.233 128.073 226.745C128.073 231.253 131.728 234.908 136.236 234.908C140.744 234.908 144.399 231.253 144.399 226.745C144.399 223.233 142.178 220.248 139.066 219.096Z" stroke="white" stroke-miterlimit="10"/>
<path d="M119.541 164.292H114.572V170.667H119.541V164.292Z" fill="#858585"/>
<path d="M120.708 170.681H113.405C111.305 170.681 109.603 172.383 109.603 174.483V189.373H124.509V174.483C124.51 172.383 122.808 170.681 120.708 170.681Z" fill="#DBDBDB"/>
<path d="M150.953 164.292H145.984V170.667H150.953V164.292Z" fill="#858585"/>
<path d="M152.12 170.681H144.817C142.718 170.681 141.015 172.383 141.015 174.483V189.373H155.921V174.483C155.922 172.383 154.22 170.681 152.12 170.681Z" fill="#DBDBDB"/>
<path d="M178.172 164.292H173.203V170.667H178.172V164.292Z" fill="#858585"/>
<path d="M179.339 170.681H172.036C169.936 170.681 168.234 172.383 168.234 174.483V189.373H183.14V174.483C183.14 172.383 181.438 170.681 179.339 170.681Z" fill="#DBDBDB"/>
<path d="M197.841 164.292H192.872V170.667H197.841V164.292Z" fill="#858585"/>
<path d="M199.008 170.681H191.705C189.606 170.681 187.903 172.383 187.903 174.483V189.373H202.809V174.483C202.809 172.383 201.107 170.681 199.008 170.681Z" fill="#DBDBDB"/>
<path d="M213.083 189.263H101.522V197.651H213.083V189.263Z" fill="#DBDBDB"/>
<path d="M62.024 282.012L64.256 286.128H76.943L79.184 282.012H62.024Z" fill="#808080"/>
<path d="M120.423 282.012L122.655 286.128H135.342L137.583 282.012H120.423Z" fill="#808080"/>
<path d="M178.822 282.012L181.054 286.128H193.741L195.981 282.012H178.822Z" fill="#808080"/>
<path d="M237.22 282.012L239.452 286.128H252.139L254.38 282.012H237.22Z" fill="#808080"/>
<path d="M62.024 309.048L64.256 313.165H76.943L79.184 309.048H62.024Z" fill="#808080"/>
<path d="M120.423 309.048L122.655 313.165H135.342L137.583 309.048H120.423Z" fill="#808080"/>
<path d="M178.822 309.048L181.054 313.165H193.741L195.981 309.048H178.822Z" fill="#808080"/>
<path d="M237.22 309.048L239.452 313.165H252.139L254.38 309.048H237.22Z" fill="#808080"/>
<path d="M49.477 282.014H264.052" stroke="#808080" stroke-miterlimit="10"/>
<path d="M49.477 308.927H264.052" stroke="#808080" stroke-miterlimit="10"/>
<path d="M428.456 226.809L424.053 209.71V205.036H417.821V209.71L413.419 226.809C413.123 227.957 413.99 229.075 415.175 229.075H426.7C427.885 229.075 428.752 227.957 428.456 226.809Z" fill="#BDBDBD"/>
<path d="M424.852 218.168H417.022L414.712 227.142C414.661 227.339 414.743 227.485 414.797 227.554C414.851 227.623 414.971 227.739 415.175 227.739H426.7C426.904 227.739 427.024 227.623 427.078 227.554C427.132 227.485 427.214 227.339 427.163 227.142L424.852 218.168Z" fill="#808080"/>
<path d="M455.064 226.809L450.661 209.71V205.036H444.429V209.71L440.027 226.809C439.731 227.957 440.598 229.075 441.783 229.075H453.308C454.493 229.075 455.36 227.957 455.064 226.809Z" fill="#BDBDBD"/>
<path d="M451.46 218.168H443.63L441.32 227.142C441.269 227.339 441.352 227.485 441.405 227.554C441.459 227.623 441.579 227.739 441.783 227.739H453.308C453.512 227.739 453.632 227.623 453.686 227.554C453.74 227.485 453.822 227.339 453.771 227.142L451.46 218.168Z" fill="#808080"/>
<path d="M420.5 209V158" stroke="#BDBDBD" stroke-miterlimit="10"/>
<path d="M482.523 228.998H313.712V328.415H482.523V228.998Z" fill="#DBDBDB"/>
<path d="M477.858 232.946H318.378V328.415H477.858V232.946Z" fill="#BDBDBD"/>
<path d="M403.564 271.426L409.307 279.321H453.811L459.923 271.426H403.564Z" fill="#808080"/>
<path d="M449.54 275.927H414.997V279.321H449.54V275.927Z" fill="#5C5C5C"/>
<path d="M398.425 258.311H370.072V266.897H398.425V258.311Z" fill="#808080"/>
<path d="M415.197 246.686H411.004V256.95H415.197V246.686Z" fill="#263238" stroke="#263238" stroke-miterlimit="10"/>
<path d="M415.589 252.077H410.613C408.513 252.077 406.811 253.779 406.811 255.879V267.851H419.39V255.879C419.39 253.779 417.688 252.077 415.589 252.077Z" fill="#DBDBDB"/>
<path d="M432.468 246.686H428.275V256.95H432.468V246.686Z" fill="#263238" stroke="#263238" stroke-miterlimit="10"/>
<path d="M432.86 252.077H427.884C425.785 252.077 424.083 253.779 424.083 255.879V267.851H436.662V255.879C436.662 253.779 434.96 252.077 432.86 252.077Z" fill="#DBDBDB"/>
<path d="M449.74 246.686H445.547V256.95H449.74V246.686Z" fill="#263238" stroke="#263238" stroke-miterlimit="10"/>
<path d="M450.131 252.077H445.155C443.055 252.077 441.353 253.779 441.353 255.879V267.851H453.932V255.879C453.933 253.779 452.231 252.077 450.131 252.077Z" fill="#DBDBDB"/>
<path d="M398.425 250.924H370.072V258.312H398.425V250.924Z" fill="#A3A3A3"/>
<path d="M477.858 266.324H318.378V272.784H477.858V266.324Z" fill="#DBDBDB"/>
<path d="M376.915 296.113H365.879V329.76H376.915V296.113Z" fill="#263238" stroke="#263238" stroke-miterlimit="10" stroke-linecap="round" stroke-linejoin="round"/>
<path d="M397.104 279.693H345.691V322.223H397.104V279.693Z" fill="#545454"/>
<path d="M393.524 282.654H349.27V319.263H393.524V282.654Z" fill="white"/>
<path d="M358.762 291.399L372.443 301.262L363.216 306.353" stroke="#828282" stroke-miterlimit="10"/>
<path d="M379.124 292.036L372.443 301.263L375.624 313.353" stroke="#828282" stroke-miterlimit="10"/>
<path d="M372.443 301.263L386.76 309.535" stroke="#828282" stroke-miterlimit="10"/>
<path d="M360.034 290.605C360.034 292.45 358.538 293.946 356.693 293.946C354.848 293.946 353.352 292.45 353.352 290.605C353.352 288.76 354.848 287.264 356.693 287.264C358.539 287.264 360.034 288.76 360.034 290.605Z" fill="#1598E1"/>
<path d="M366.557 306.354C366.557 308.199 365.061 309.695 363.216 309.695C361.371 309.695 359.875 308.199 359.875 306.354C359.875 304.509 361.371 303.013 363.216 303.013C365.061 303.013 366.557 304.509 366.557 306.354Z" fill="#1598E1"/>
<path d="M382.465 292.036C382.465 293.881 380.969 295.377 379.124 295.377C377.279 295.377 375.783 293.881 375.783 292.036C375.783 290.191 377.279 288.695 379.124 288.695C380.969 288.696 382.465 290.191 382.465 292.036Z" fill="#1598E1"/>
<path d="M390.101 309.535C390.101 311.38 388.605 312.876 386.76 312.876C384.915 312.876 383.419 311.38 383.419 309.535C383.419 307.69 384.915 306.194 386.76 306.194C388.605 306.195 390.101 307.69 390.101 309.535Z" fill="#1598E1"/>
<path d="M375.624 316.694C377.469 316.694 378.965 315.198 378.965 313.353C378.965 311.508 377.469 310.012 375.624 310.012C373.779 310.012 372.283 311.508 372.283 313.353C372.283 315.198 373.779 316.694 375.624 316.694Z" fill="#1598E1"/>
<path d="M446.364 307.957H432.905V310.918H446.364V307.957Z" fill="#263238" stroke="#263238" stroke-miterlimit="10" stroke-linecap="round" stroke-linejoin="round"/>
<path d="M414.735 329.491V322.858C414.735 320.915 415.575 319.068 417.04 317.791L425.233 310.648H455.112L462.898 317.803C464.283 319.076 465.072 320.871 465.072 322.753V330.568L414.735 329.491Z" fill="#C4C4C4"/>
<path d="M454.305 319.128C454.305 321.878 447.857 324.108 439.904 324.108C431.95 324.108 425.503 321.878 425.503 319.128C425.503 316.378 431.951 314.148 439.904 314.148C447.857 314.148 454.305 316.378 454.305 319.128Z" fill="#DBDBDB"/>
<path d="M483.187 328.415H313.712V395.609H483.187V328.415Z" fill="#DBDBDB"/>
<path d="M313.658 363.408H482.434" stroke="#808080" stroke-miterlimit="10"/>
<path d="M483.187 328.415H430.482V395.609H483.187V328.415Z" fill="#BDBDBD"/>
<path d="M486.472 328.415H310.428V334.875H486.472V328.415Z" fill="#808080"/>
<path d="M396.566 334.934L399.227 339.842H414.352L417.023 334.934H396.566Z" fill="#808080"/>
<path d="M396.566 363.198L399.227 368.106H414.352L417.023 363.198H396.566Z" fill="#808080"/>
<path d="M339.769 334.934L342.43 339.842H357.555L360.226 334.934H339.769Z" fill="#808080"/>
<path d="M339.769 363.198L342.43 368.106H357.555L360.226 363.198H339.769Z" fill="#808080"/>
<path d="M417.15 175.5H464" stroke="#BDBDBD" stroke-miterlimit="10"/>
<path d="M413 175.5H417.15" stroke="#BDBDBD" stroke-width="3" stroke-miterlimit="10"/>
<path d="M447.5 176V207.5" stroke="#BDBDBD" stroke-miterlimit="10"/>
<path d="M86.442 270.272H78.187V279.604H86.442V270.272Z" fill="#263238" stroke="#263238" stroke-miterlimit="10"/>
<path d="M89.672 266.683H73.88V272.425H89.672V266.683Z" fill="#263238" stroke="#263238" stroke-miterlimit="10"/>
<path d="M99.721 276.732H64.189V371.483H99.721V276.732Z" fill="white" stroke="#263238" stroke-miterlimit="10"/>
<path d="M78.007 314.058C83.0615 314.058 87.159 309.96 87.159 304.906C87.159 299.851 83.0615 295.754 78.007 295.754C72.9525 295.754 68.855 299.851 68.855 304.906C68.855 309.96 72.9525 314.058 78.007 314.058Z" fill="#263238" stroke="#263238" stroke-miterlimit="10"/>
<path d="M152.626 395.609L136.329 375.151H89.313L73.145 395.609H152.626Z" fill="white" stroke="#263238" stroke-miterlimit="10"/>
<path d="M152.197 375.431H87.801C84.671 375.431 82.134 372.894 82.134 369.764V369.329H157.863V369.764C157.864 372.895 155.327 375.431 152.197 375.431Z" fill="white" stroke="#263238" stroke-miterlimit="10"/>
<path d="M127.302 244.474L113.034 253.772L114.894 256.626L129.161 247.327L127.302 244.474Z" fill="white" stroke="#263238" stroke-miterlimit="10"/>
<path d="M135.38 234.691L122.064 243.369L127.643 251.929L140.959 243.251L135.38 234.691Z" fill="#263238" stroke="#263238" stroke-miterlimit="10"/>
<path d="M83.57 221.819H80.34V232.227H83.57V221.819Z" fill="#263238" stroke="#263238" stroke-miterlimit="10"/>
<path d="M85.006 231.51H78.546V251.968H85.006V231.51Z" fill="white" stroke="#263238" stroke-miterlimit="10"/>
<path d="M89.313 249.814H74.239V261.658H89.313V249.814Z" fill="white" stroke="#263238" stroke-miterlimit="10"/>
<path d="M113.669 244.148L96.499 258.65L58.386 262.011L59.25 271.812L105.241 267.757L120.779 256.162L113.669 244.148Z" fill="white" stroke="#263238" stroke-miterlimit="10"/>
<path d="M395.184 130.538L393.472 148.517C393.472 148.517 383.541 147.832 380.63 142.01C377.719 136.188 379.02 128.577 379.02 128.577L380.287 121.634C380.287 121.634 385.424 118.894 390.732 122.148C396.04 125.401 395.184 130.538 395.184 130.538Z" fill="#B5B5B5" stroke="#263238" stroke-miterlimit="10"/>
<path d="M324.573 188.224L360.973 179.354L379.02 128.578C379.02 128.578 383.302 136.531 386.361 140.201C389.42 143.871 395.232 147.236 395.232 147.236C395.232 147.236 389.114 180.577 386.973 191.282C384.832 201.988 384.526 203.823 381.773 206.27C379.02 208.717 345.985 229.517 345.985 229.517C345.985 229.517 356.997 250.011 358.22 264.387C359.443 278.763 360.361 295.586 360.361 295.586C360.361 295.586 333.444 252.763 323.656 240.222C313.868 227.681 309.892 208.717 312.033 198.929C314.174 189.141 324.573 188.224 324.573 188.224Z" fill="white" stroke="#263238" stroke-miterlimit="10"/>
<path d="M337.509 197.978L345.985 229.517L352.191 192.166" stroke="#263238" stroke-miterlimit="10"/>
<path d="M361.979 180.237C361.979 180.237 371.461 183.602 372.991 194.613" stroke="#263238" stroke-miterlimit="10"/>
<path d="M368.708 180.237C368.708 180.237 380.331 182.684 380.943 194.919" stroke="#263238" stroke-miterlimit="10"/>
<path d="M325.58 200.119L340.874 231.93L337.509 237.742L345.156 243.859L347.297 255.788" stroke="#263238" stroke-miterlimit="10"/>
<path d="M270.897 160.785C270.897 160.785 252.85 166.597 247.039 177.914C241.227 189.232 255.298 209.725 257.439 217.372C259.58 225.019 256.521 227.772 253.768 225.631C251.015 223.49 247.956 227.772 251.015 232.666C254.074 237.56 270.897 233.89 276.403 231.137C281.909 228.384 280.685 210.031 277.627 198.102C274.568 186.173 270.898 172.714 272.733 166.903C274.568 161.09 270.897 160.785 270.897 160.785Z" fill="#263238" stroke="#263238" stroke-miterlimit="10"/>
<path d="M327.938 135.919C327.938 135.919 336.808 146.625 337.42 150.907C338.032 155.189 337.726 157.636 337.726 157.636C337.726 157.636 342.008 162.53 342.926 163.142C343.844 163.754 346.902 165.589 345.067 168.036C343.232 170.483 340.173 170.483 340.173 170.483C340.173 170.483 340.479 179.965 339.561 184.248C338.643 188.53 336.808 190.06 333.443 190.365C330.078 190.671 325.796 190.671 325.796 190.671L322.431 207.8L326.713 230.129L294.902 195.565C294.902 195.565 297.961 183.024 297.961 180.577C297.961 178.13 293.373 173.542 297.349 160.695C301.327 147.848 327.938 135.919 327.938 135.919Z" fill="#B5B5B5" stroke="#263238" stroke-miterlimit="10"/>
<path d="M297.044 168.648C297.044 168.648 302.55 170.483 304.079 166.507C305.608 162.531 303.161 157.637 310.808 153.354C318.455 149.072 331.913 146.013 334.666 138.978C337.419 131.943 334.36 124.602 330.078 123.684C325.796 122.766 320.596 125.213 312.337 125.519C304.078 125.825 279.867 125.699 272.22 137.323C264.573 148.946 271.961 169.871 274.102 174.46C276.243 179.048 276.243 190.977 285.114 191.589C293.984 192.201 300.102 185.472 300.714 180.577C301.327 175.683 297.044 168.648 297.044 168.648Z" fill="#263238" stroke="#263238" stroke-miterlimit="10"/>
<g opacity="0.5">
<path d="M294.903 164.977L338.949 149.989C338.949 149.989 346.902 154.883 341.396 161.306L318.761 168.647L295.208 168.035L294.903 164.977Z" fill="white"/>
</g>
<path d="M294.903 164.977L338.949 149.989C338.949 149.989 346.902 154.883 341.396 161.306L318.761 168.647L295.208 168.035L294.903 164.977Z" stroke="#263238" stroke-miterlimit="10"/>
<path d="M294.903 164.977L338.95 149.989" stroke="#263238" stroke-width="2" stroke-miterlimit="10" stroke-linecap="round"/>
<path d="M314.174 159.471L318.762 168.648" stroke="#263238" stroke-miterlimit="10"/>
<path d="M302.856 170.789C301.938 170.789 293.986 160.083 290.009 163.142C286.033 166.201 289.703 177.212 294.597 179.354C299.491 181.495 303.468 176.295 303.468 176.295" fill="#B5B5B5"/>
<path d="M302.856 170.789C301.938 170.789 293.986 160.083 290.009 163.142C286.033 166.201 289.703 177.212 294.597 179.354C299.491 181.495 303.468 176.295 303.468 176.295" stroke="#263238" stroke-miterlimit="10"/>
<path d="M332.526 158.554C332.526 160.074 331.978 161.307 331.302 161.307C330.626 161.307 330.078 160.074 330.078 158.554C330.078 157.034 330.626 155.801 331.302 155.801C331.978 155.801 332.526 157.033 332.526 158.554Z" fill="#263238"/>
<path d="M293.986 191.894C293.986 191.894 309.892 205.047 318.762 219.423C327.632 233.799 350.267 259.493 353.938 268.057C357.609 276.622 360.667 285.492 360.667 292.833C360.667 300.174 361.279 355.844 361.279 357.067C361.279 358.29 361.279 395.608 361.279 395.608H267.375C267.375 395.608 273.187 315.162 273.187 298.033C273.187 280.904 265.846 265.304 271.352 240.834C276.857 216.365 286.033 202.294 293.986 191.894Z" fill="white" stroke="#263238" stroke-miterlimit="10"/>
<path d="M287.868 200.765L321.82 247.564L330.385 244.811L329.773 255.211L351.185 266.528" stroke="#263238" stroke-miterlimit="10"/>
<path d="M351.996 355.498H302.604V363.401H348.045" stroke="#263238" stroke-miterlimit="10"/>
<path d="M404.641 165.521H404.312C403.126 165.521 402.165 164.559 402.165 163.373V149.967H406.79V163.373C406.789 164.559 405.827 165.521 404.641 165.521Z" fill="white" stroke="#263238" stroke-miterlimit="10"/>
<path d="M407.894 147.152H401.058V151.777H407.894V147.152Z" fill="white" stroke="#263238" stroke-miterlimit="10"/>
<path d="M427.888 122.49C427.888 122.49 430.285 126.257 429.943 128.483C429.601 130.709 426.347 140.469 425.32 140.64C424.293 140.811 424.121 139.613 424.464 136.188C424.806 132.763 425.32 130.538 425.32 129.51C425.32 128.484 426.005 120.436 427.888 122.49Z" fill="#1598E1" stroke="#263238" stroke-miterlimit="10" stroke-linecap="round" stroke-linejoin="round"/>
<path d="M381.828 117.867C381.828 117.867 377.89 124.716 380.801 128.655C383.712 132.593 390.047 132.936 390.047 132.936C390.047 132.936 391.074 140.641 392.616 141.84C394.157 143.039 397.924 148.347 398.438 150.23C398.952 152.113 402.547 149.716 402.547 148.175C402.547 146.634 399.979 140.47 399.294 138.757C398.609 137.045 400.15 132.422 400.664 130.881C401.178 129.34 401.691 128.655 401.691 128.655C401.691 128.655 406.657 133.449 407.17 136.189C407.684 138.929 406.314 149.031 407.684 150.23C409.054 151.429 412.65 151.086 413.335 149.031C414.02 146.976 415.219 134.99 415.219 132.935C415.219 130.88 411.966 123.86 411.966 123.86C411.966 123.86 417.274 129.168 417.445 131.052C417.616 132.935 416.075 144.921 416.931 145.264C417.787 145.606 419.157 146.12 420.356 145.093C421.555 144.066 422.582 141.326 422.582 141.326C422.582 141.326 426.007 133.278 427.376 129.511C428.746 125.744 429.944 121.463 426.862 119.922C423.78 118.381 421.383 117.011 412.65 113.586C403.917 110.162 391.589 107.593 387.137 110.846C382.684 114.1 381.828 117.867 381.828 117.867Z" fill="#1598E1" stroke="#263238" stroke-miterlimit="10" stroke-linecap="round" stroke-linejoin="round"/>
<path d="M390.047 132.936L389.362 120.607" stroke="#263238" stroke-miterlimit="10"/>
<path d="M389.876 128.484C389.876 128.484 383.027 128.313 382.342 119.58" stroke="#263238" stroke-miterlimit="10"/>
<path d="M424.464 136.189C424.464 136.189 426.69 129.682 424.806 126.6C422.922 123.518 415.731 118.723 415.731 118.723" stroke="#263238" stroke-miterlimit="10"/>
<path d="M376.377 238.236C376.98 237.834 387.637 226.574 387.838 225.77C388.039 224.966 388.24 214.108 389.446 211.695C390.652 209.282 394.674 202.245 394.875 200.033C395.076 197.821 395.076 190.382 394.875 187.768C394.674 185.154 397.288 184.953 399.097 187.366C400.907 189.779 401.309 193.197 401.309 196.213C401.309 199.229 401.51 201.642 401.912 202.245C402.314 202.848 405.732 205.864 407.341 206.266C408.95 206.668 418.601 201.843 421.416 200.837C424.231 199.832 426.041 191.588 426.443 190.784C426.845 189.98 427.046 183.948 427.247 182.54C427.448 181.132 430.062 179.323 431.067 182.741C432.072 186.159 431.67 194.202 431.469 196.414C431.268 198.626 431.469 203.25 430.464 204.457C429.459 205.663 423.025 211.293 422.421 212.098C421.818 212.902 419.405 220.744 418.601 221.95C417.797 223.156 410.96 225.77 406.336 228.585C401.711 231.4 396.886 235.823 396.886 235.823C396.886 235.823 398.294 237.432 396.886 238.839C395.479 240.247 392.865 241.252 392.865 241.252L388.643 251.305L376.377 238.236Z" fill="#B5B5B5" stroke="#263238" stroke-miterlimit="10"/>
<path d="M418.601 221.95C419.405 220.744 421.818 212.902 422.421 212.098C423.024 211.294 429.458 205.664 430.464 204.457C431.469 203.251 431.268 198.626 431.469 196.414C431.67 194.202 432.072 186.16 431.067 182.741C430.062 179.323 427.448 181.132 427.247 182.54C427.046 183.947 426.845 189.979 426.443 190.784C426.041 191.588 424.231 199.832 421.416 200.837C418.601 201.842 408.95 206.668 407.341 206.266C405.732 205.864 402.314 202.848 401.912 202.245C401.51 201.642 401.309 199.229 401.309 196.213C401.309 193.197 400.907 189.779 399.097 187.366C397.287 184.953 394.674 185.154 394.875 187.768C395.076 190.382 395.076 197.821 394.875 200.033C394.674 202.245 390.653 209.282 389.446 211.695C388.24 214.108 388.038 224.965 387.838 225.77C387.734 226.187 384.822 229.411 381.957 232.477L392.688 241.675L392.865 241.253C392.865 241.253 395.479 240.248 396.886 238.84C398.294 237.432 396.886 235.824 396.886 235.824C396.886 235.824 401.712 231.401 406.336 228.586C410.961 225.77 417.797 223.156 418.601 221.95Z" fill="#1598E1" stroke="#263238" stroke-miterlimit="10" stroke-linecap="round" stroke-linejoin="round"/>
<path d="M422.422 212.097L415.585 217.124" stroke="#263238" stroke-miterlimit="10"/>
<path d="M286.951 223.706C286.951 223.706 297.351 221.871 303.468 226.765C309.585 231.659 311.727 240.835 312.033 241.753C312.339 242.671 341.091 268.976 341.091 268.976L377.185 235.635L394.926 253.07C394.926 253.07 372.291 281.823 360.668 292.834C349.045 303.845 340.48 309.046 338.339 309.963C336.198 310.881 334.057 309.963 331.61 308.434C329.163 306.905 278.387 255.823 278.387 255.823" fill="white"/>
<path d="M286.951 223.706C286.951 223.706 297.351 221.871 303.468 226.765C309.585 231.659 311.727 240.835 312.033 241.753C312.339 242.671 341.091 268.976 341.091 268.976L377.185 235.635L394.926 253.07C394.926 253.07 372.291 281.823 360.668 292.834C349.045 303.845 340.48 309.046 338.339 309.963C336.198 310.881 334.057 309.963 331.61 308.434C329.163 306.905 278.387 255.823 278.387 255.823" stroke="#263238" stroke-miterlimit="10"/>
<path d="M286.339 245.117C286.339 245.117 295.821 236.247 300.715 235.941C305.609 235.635 308.974 239.612 308.974 239.612" stroke="#263238" stroke-miterlimit="10"/>
<path d="M281.445 237.776C281.445 237.776 293.068 230.129 299.798 233.799" stroke="#263238" stroke-miterlimit="10"/>
<path d="M341.091 268.975C341.091 268.975 333.138 285.798 334.362 293.751" stroke="#263238" stroke-miterlimit="10"/>
<path d="M339.561 269.893C339.561 269.893 331.302 275.093 328.244 284.881" stroke="#263238" stroke-miterlimit="10"/>
<path d="M415.7 187.035H415.371C414.185 187.035 413.223 186.073 413.223 184.887V171.481H417.848V184.887C417.847 186.074 416.886 187.035 415.7 187.035Z" fill="white" stroke="#263238" stroke-miterlimit="10"/>
<path d="M418.953 168.667H412.117V173.291H418.953V168.667Z" fill="white" stroke="#263238" stroke-miterlimit="10"/>
<path d="M424.346 187.035H424.017C422.831 187.035 421.869 186.073 421.869 184.887V171.481H426.494V184.887C426.493 186.074 425.532 187.035 424.346 187.035Z" fill="white" stroke="#263238" stroke-miterlimit="10"/>
<path d="M427.599 168.667H420.763V173.291H427.599V168.667Z" fill="white" stroke="#263238" stroke-miterlimit="10"/>
<path d="M429.459 178.519H400.103V193.599H429.459V178.519Z" fill="#263238" stroke="#263238" stroke-miterlimit="10"/>
<path d="M132.551 213.528C132.551 213.528 132.2 225.122 134.659 229.689C137.118 234.256 141.334 236.013 141.686 239.878C142.037 243.743 140.281 249.013 142.74 250.418C145.199 251.823 162.766 269.39 168.387 269.039C174.008 268.688 179.981 260.607 179.981 260.607L192.629 268.688L209.493 233.906L198.25 223.718C198.25 223.718 193.683 196.314 187.359 188.585C181.035 180.856 157.496 178.748 145.551 184.369C133.606 189.99 129.39 202.638 126.579 205.097C123.768 207.556 117.796 210.016 120.958 214.583C124.119 219.15 132.551 213.528 132.551 213.528Z" fill="white" stroke="#263238" stroke-miterlimit="10"/>
<path d="M195.088 230.744C196.428 229.702 197.766 227.02 198.865 224.275L198.249 223.717C198.249 223.717 193.682 196.313 187.358 188.584C181.034 180.855 157.495 178.747 145.55 184.368C133.605 189.989 129.389 202.637 126.578 205.097C123.767 207.556 117.795 210.016 120.957 214.583C123.906 218.843 131.432 214.244 132.434 213.604L132.551 213.529C132.551 213.529 138.172 211.772 142.037 209.664C145.902 207.556 150.118 204.043 150.118 204.043C150.118 204.043 142.74 216.34 145.551 220.204C148.362 224.069 156.794 222.312 156.794 222.312C156.794 222.312 162.415 229.69 165.929 227.933C169.442 226.176 164.524 219.501 169.794 217.042C175.064 214.583 179.28 225.123 179.28 226.879C179.278 228.636 191.926 233.203 195.088 230.744Z" fill="#263238" stroke="#263238" stroke-miterlimit="10"/>
<path d="M198.924 224.328L174.359 252.877C174.359 252.877 168.386 252.174 164.17 249.012C159.954 245.85 156.441 238.121 156.441 238.121C156.441 238.121 174.359 218.447 183.493 212.825C191.466 207.918 194.085 207.027 194.622 206.88C194.311 205.688 193.984 204.488 193.639 203.296C191.73 204.139 186.13 206.949 177.169 214.23C167.376 222.187 146.661 242.931 141.48 248.151C141.62 249.173 141.977 249.981 142.739 250.417C145.198 251.822 162.765 269.389 168.386 269.038C169.492 268.969 170.609 268.594 171.694 268.047C172.767 263.672 174.616 257.029 176.115 254.282C177.935 250.945 195.977 231.388 200.879 226.1L198.924 224.328Z" fill="#1598E1" stroke="#263238" stroke-miterlimit="10" stroke-linecap="round" stroke-linejoin="round"/>
<path d="M167.684 228.987C167.684 228.987 164.522 217.744 168.738 215.636C172.954 213.528 178.224 218.095 178.926 223.014C179.629 227.933 177.169 233.905 177.169 233.905C177.169 233.905 179.628 238.824 178.574 244.094" fill="white"/>
<path d="M167.684 228.987C167.684 228.987 164.522 217.744 168.738 215.636C172.954 213.528 178.224 218.095 178.926 223.014C179.629 227.933 177.169 233.905 177.169 233.905C177.169 233.905 179.628 238.824 178.574 244.094" stroke="#263238" stroke-miterlimit="10"/>
<path d="M149.609 237.69C150.307 239.046 150.303 240.439 149.6 240.801C148.897 241.163 147.761 240.357 147.063 239.001C146.365 237.645 146.369 236.252 147.072 235.89C147.775 235.528 148.911 236.334 149.609 237.69Z" fill="#263238"/>
<path d="M140.528 231.158C140.528 231.158 140.937 226.248 146.87 227.271" stroke="#263238" stroke-miterlimit="10"/>
<path d="M208.829 229.794L182.27 272.145L192.678 279.682L217.083 233.742L208.829 229.794Z" fill="white" stroke="#263238" stroke-miterlimit="10"/>
<path d="M215.289 234.46C215.289 234.46 194.831 269.992 190.883 277.888C186.935 285.784 175.45 305.165 174.732 316.65C174.014 328.135 170.425 395.61 170.425 395.61H252.973C252.973 395.61 259.074 344.286 258.715 324.546C258.356 304.806 253.331 275.735 238.257 255.995C223.185 236.254 215.289 234.46 215.289 234.46Z" fill="white" stroke="#263238" stroke-miterlimit="10"/>
<path d="M222.467 239.843C222.467 239.843 210.264 262.813 202.009 276.093C193.754 289.373 182.987 303.729 180.116 311.984C177.245 320.239 177.245 323.828 177.245 323.828" stroke="#263238" stroke-miterlimit="10"/>
<path d="M116.59 330.288L106.899 323.11C106.899 323.11 102.233 311.266 99.362 308.036C96.491 304.806 92.543 305.524 90.03 302.652C87.518 299.781 84.646 293.32 83.211 292.603C81.775 291.885 78.545 293.68 78.545 296.551C78.545 299.422 81.775 304.088 81.775 305.165C81.775 306.242 81.775 306.242 81.775 306.242C81.775 306.242 69.572 302.653 68.136 303.73C66.7 304.807 65.265 308.396 66.341 310.19C67.418 311.985 69.571 312.702 69.571 314.138C69.571 315.574 67.059 320.239 68.494 322.034C69.93 323.829 72.083 324.905 72.083 324.905C72.083 324.905 72.083 331.724 74.236 334.595C76.389 337.466 92.899 339.62 97.924 340.337C102.949 341.054 117.664 348.233 117.664 348.233L116.59 330.288Z" fill="#1598E1" stroke="#263238" stroke-miterlimit="10" stroke-linecap="round" stroke-linejoin="round"/>
<path d="M211.7 268.556C211.7 268.556 196.267 276.093 190.525 295.833C184.782 315.573 181.193 336.031 181.193 336.031C181.193 336.031 177.604 335.313 177.604 337.467C177.604 339.62 177.245 340.697 177.245 340.697L114.795 328.853L113.359 358.283C113.359 358.283 194.472 373.357 198.779 373.357C203.086 373.357 207.752 371.921 209.187 368.332C210.623 364.743 233.952 312.343 233.952 312.343" fill="white"/>
<path d="M211.7 268.556C211.7 268.556 196.267 276.093 190.525 295.833C184.782 315.573 181.193 336.031 181.193 336.031C181.193 336.031 177.604 335.313 177.604 337.467C177.604 339.62 177.245 340.697 177.245 340.697L114.795 328.853L113.359 358.283C113.359 358.283 194.472 373.357 198.779 373.357C203.086 373.357 207.752 371.921 209.187 368.332C210.623 364.743 233.952 312.343 233.952 312.343" stroke="#263238" stroke-miterlimit="10"/>
<path d="M218.878 285.066C218.878 285.066 231.081 291.885 233.234 301.217" stroke="#263238" stroke-miterlimit="10"/>
<path d="M210.264 295.474C211.341 295.474 229.645 296.91 233.593 307.318" stroke="#263238" stroke-miterlimit="10"/>
<path d="M227.133 327.417C227.133 327.417 241.13 320.957 245.437 306.959" stroke="#263238" stroke-miterlimit="10"/>
<path d="M180.475 341.055C180.475 341.055 187.653 354.335 187.294 363.666" stroke="#263238" stroke-miterlimit="10"/>
<path d="M184.782 338.902C184.782 338.902 191.96 340.338 196.985 350.028" stroke="#263238" stroke-miterlimit="10"/>
<path d="M281.286 325.263H268.365C265.986 325.263 263.672 327.191 263.197 329.57L249.846 395.609H271.38L284.731 329.57C285.207 327.191 283.664 325.263 281.286 325.263Z" fill="#263238" stroke="#263238" stroke-miterlimit="10"/>
<path d="M8.29901 395.609H495.27" stroke="#263238" stroke-miterlimit="10"/>
<path d="M38.257 393.374H37.638C35.411 393.374 33.606 391.569 33.606 389.342V348.696H42.29V389.342C42.29 391.569 40.484 393.374 38.257 393.374Z" fill="white" stroke="#263238" stroke-miterlimit="10" stroke-linecap="round" stroke-linejoin="round"/>
<path d="M33.606 365.174V389.032C33.606 391.43 35.55 393.374 37.948 393.374C40.346 393.374 42.29 391.43 42.29 389.032V365.174H33.606Z" fill="#1598E1" stroke="#263238" stroke-miterlimit="10" stroke-linecap="round" stroke-linejoin="round"/>
<path d="M43.822 347.419H32.074V355.592H43.822V347.419Z" fill="white" stroke="#263238" stroke-miterlimit="10" stroke-linecap="round" stroke-linejoin="round"/>
<path d="M54.836 393.374C52.438 393.374 50.494 391.43 50.494 389.032V348.696H59.177V389.032C59.177 391.43 57.234 393.374 54.836 393.374Z" fill="white" stroke="#263238" stroke-miterlimit="10" stroke-linecap="round" stroke-linejoin="round"/>
<path d="M50.494 365.174V389.032C50.494 391.43 52.438 393.374 54.836 393.374C57.234 393.374 59.178 391.43 59.178 389.032V365.174H50.494Z" fill="#1598E1" stroke="#263238" stroke-miterlimit="10" stroke-linecap="round" stroke-linejoin="round"/>
<path d="M60.71 347.419H48.962V355.592H60.71V347.419Z" fill="white" stroke="#263238" stroke-miterlimit="10" stroke-linecap="round" stroke-linejoin="round"/>
<path d="M71.724 393.374C69.326 393.374 67.382 391.43 67.382 389.032V348.696H76.065V389.032C76.065 391.43 74.121 393.374 71.724 393.374Z" fill="white" stroke="#263238" stroke-miterlimit="10" stroke-linecap="round" stroke-linejoin="round"/>
<path d="M67.382 365.174V389.032C67.382 391.43 69.326 393.374 71.724 393.374C74.122 393.374 76.066 391.43 76.066 389.032V365.174H67.382Z" fill="#1598E1" stroke="#263238" stroke-miterlimit="10" stroke-linecap="round" stroke-linejoin="round"/>
<path d="M77.598 347.419H65.85V355.592H77.598V347.419Z" fill="white" stroke="#263238" stroke-miterlimit="10" stroke-linecap="round" stroke-linejoin="round"/>
<path d="M88.612 393.374C86.214 393.374 84.27 391.43 84.27 389.032V348.696H92.953V389.032C92.953 391.43 91.009 393.374 88.612 393.374Z" fill="white" stroke="#263238" stroke-miterlimit="10" stroke-linecap="round" stroke-linejoin="round"/>
<path d="M84.27 365.174V389.032C84.27 391.43 86.214 393.374 88.612 393.374C91.01 393.374 92.954 391.43 92.954 389.032V365.174H84.27Z" fill="#1598E1" stroke="#263238" stroke-miterlimit="10" stroke-linecap="round" stroke-linejoin="round"/>
<path d="M94.485 347.419H82.737V355.592H94.485V347.419Z" fill="white" stroke="#263238" stroke-miterlimit="10" stroke-linecap="round" stroke-linejoin="round"/>
<path d="M101.828 359.997H26.2V362.567H101.828V389.368H22.528V395.609H106.968V394.14V389.368V362.567V359.997H101.828Z" fill="white" stroke="#263238" stroke-miterlimit="10" stroke-linecap="round" stroke-linejoin="round"/>
<path d="M385.349 390.519L375.459 352.108V341.608H361.459V352.108L351.569 390.519C350.905 393.097 352.852 395.608 355.514 395.608H381.403C384.066 395.609 386.013 393.097 385.349 390.519Z" fill="white" stroke="#263238" stroke-miterlimit="10"/>
<path d="M377.254 371.109H359.666L354.476 391.267C354.362 391.71 354.547 392.038 354.667 392.193C354.788 392.348 355.058 392.609 355.515 392.609H381.405C381.862 392.609 382.132 392.348 382.253 392.193C382.374 392.038 382.559 391.711 382.444 391.267L377.254 371.109Z" fill="#1598E1"/>
<path d="M413.835 359.29V337.109H400.835V359.29C393.689 361.936 388.585 368.792 388.585 376.859C388.585 387.214 396.98 395.609 407.335 395.609C417.69 395.609 426.085 387.214 426.085 376.859C426.085 368.792 420.981 361.936 413.835 359.29Z" fill="white" stroke="#263238" stroke-miterlimit="10"/>
<path d="M391.278 372.109C390.833 373.616 390.584 375.208 390.584 376.859C390.584 386.11 398.083 393.609 407.334 393.609C416.585 393.609 424.084 386.11 424.084 376.859C424.084 375.208 423.836 373.616 423.39 372.109H391.278Z" fill="#1598E1"/>
<path d="M452.375 371.638V330.998H443.795V371.638C439.078 373.384 435.71 377.91 435.71 383.233C435.71 390.068 441.25 395.608 448.085 395.608C454.92 395.608 460.46 390.068 460.46 383.233C460.46 377.91 457.091 373.385 452.375 371.638Z" fill="white" stroke="#263238" stroke-miterlimit="10"/>
<path d="M437.488 380.099C437.194 381.094 437.03 382.144 437.03 383.234C437.03 389.339 441.979 394.289 448.085 394.289C454.191 394.289 459.14 389.34 459.14 383.234C459.14 382.144 458.976 381.094 458.682 380.099H437.488Z" fill="#1598E1"/>
</g>
<defs>
<clipPath id="clip0_107_146">
<rect width="500" height="402" fill="white"/>
</clipPath>
</defs>
</svg>
